<mxfile host="app.diagrams.net" agent="Mozilla/5.0 (Windows NT 10.0; Win64; x64; rv:133.0) Gecko/20100101 Firefox/133.0" version="25.0.3">
  <diagram name="Pagina-1" id="6KG7eUqO8uxzKmbCFn6A">
    <mxGraphModel dx="1434" dy="773" grid="1" gridSize="10" guides="1" tooltips="1" connect="1" arrows="1" fold="1" page="1" pageScale="1" pageWidth="850" pageHeight="1100" math="0" shadow="0">
      <root>
        <mxCell id="0" />
        <mxCell id="1" parent="0" />
        <mxCell id="w6Vy-4yXhrZIZgirDHm_-2" value="&#xa;  &#xa;    &#xa;      &#xa;        &#xa;        &#xa;        &#xa;          &#xa;        &#xa;        &#xa;          &#xa;        &#xa;        &#xa;          &#xa;        &#xa;        &#xa;          &#xa;        &#xa;        &#xa;          &#xa;        &#xa;        &#xa;          &#xa;        &#xa;        &#xa;          &#xa;        &#xa;        &#xa;          &#xa;            &#xa;            &#xa;              &#xa;            &#xa;          &#xa;        &#xa;        &#xa;          &#xa;        &#xa;        &#xa;          &#xa;            &#xa;            &#xa;              &#xa;            &#xa;          &#xa;        &#xa;        &#xa;          &#xa;        &#xa;        &#xa;          &#xa;            &#xa;            &#xa;              &#xa;            &#xa;          &#xa;        &#xa;        &#xa;          &#xa;        &#xa;        &#xa;          &#xa;            &#xa;            &#xa;              &#xa;            &#xa;          &#xa;        &#xa;        &#xa;          &#xa;            &#xa;            &#xa;          &#xa;        &#xa;        &#xa;          &#xa;            &#xa;            &#xa;          &#xa;        &#xa;        &#xa;          &#xa;            &#xa;            &#xa;            &#xa;              &#xa;            &#xa;          &#xa;        &#xa;      &#xa;    &#xa;  &#xa;&#xa;&#xa;&#xa;    &#xa;" style="text;whiteSpace=wrap;html=1;" parent="1" vertex="1">
          <mxGeometry x="330" y="490" width="30" height="1410" as="geometry" />
        </mxCell>
        <mxCell id="w6Vy-4yXhrZIZgirDHm_-3" value="&#xa;  &#xa;    &#xa;      &#xa;        &#xa;        &#xa;        &#xa;          &#xa;        &#xa;        &#xa;          &#xa;        &#xa;        &#xa;          &#xa;        &#xa;        &#xa;          &#xa;        &#xa;        &#xa;          &#xa;        &#xa;        &#xa;          &#xa;        &#xa;        &#xa;          &#xa;        &#xa;        &#xa;          &#xa;            &#xa;            &#xa;              &#xa;            &#xa;          &#xa;        &#xa;        &#xa;          &#xa;        &#xa;        &#xa;          &#xa;            &#xa;            &#xa;              &#xa;            &#xa;          &#xa;        &#xa;        &#xa;          &#xa;        &#xa;        &#xa;          &#xa;            &#xa;            &#xa;              &#xa;            &#xa;          &#xa;        &#xa;        &#xa;          &#xa;        &#xa;        &#xa;          &#xa;            &#xa;            &#xa;              &#xa;            &#xa;          &#xa;        &#xa;        &#xa;          &#xa;            &#xa;            &#xa;          &#xa;        &#xa;        &#xa;          &#xa;            &#xa;            &#xa;          &#xa;        &#xa;        &#xa;          &#xa;            &#xa;            &#xa;            &#xa;              &#xa;            &#xa;          &#xa;        &#xa;      &#xa;    &#xa;  &#xa;&#xa;&#xa;&#xa;    &#xa;" style="text;whiteSpace=wrap;html=1;" parent="1" vertex="1">
          <mxGeometry x="220" y="130" width="30" height="1410" as="geometry" />
        </mxCell>
        <mxCell id="yX1Fl0R12Xeu3HnyX83A-16" value="" style="shape=umlLifeline;perimeter=lifelinePerimeter;whiteSpace=wrap;html=1;container=1;dropTarget=0;collapsible=0;recursiveResize=0;outlineConnect=0;portConstraint=eastwest;newEdgeStyle={&quot;curved&quot;:0,&quot;rounded&quot;:0};participant=umlActor;" vertex="1" parent="1">
          <mxGeometry x="410" y="330" width="20" height="370" as="geometry" />
        </mxCell>
        <mxCell id="yX1Fl0R12Xeu3HnyX83A-17" value="" style="html=1;points=[[0,0,0,0,5],[0,1,0,0,-5],[1,0,0,0,5],[1,1,0,0,-5]];perimeter=orthogonalPerimeter;outlineConnect=0;targetShapes=umlLifeline;portConstraint=eastwest;newEdgeStyle={&quot;curved&quot;:0,&quot;rounded&quot;:0};" vertex="1" parent="yX1Fl0R12Xeu3HnyX83A-16">
          <mxGeometry x="5" y="40" width="10" height="330" as="geometry" />
        </mxCell>
        <mxCell id="yX1Fl0R12Xeu3HnyX83A-18" value=":RubricaController" style="shape=umlLifeline;perimeter=lifelinePerimeter;whiteSpace=wrap;html=1;container=1;dropTarget=0;collapsible=0;recursiveResize=0;outlineConnect=0;portConstraint=eastwest;newEdgeStyle={&quot;curved&quot;:0,&quot;rounded&quot;:0};" vertex="1" parent="1">
          <mxGeometry x="480" y="330" width="100" height="340" as="geometry" />
        </mxCell>
        <mxCell id="yX1Fl0R12Xeu3HnyX83A-19" value="" style="html=1;points=[[0,0,0,0,5],[0,1,0,0,-5],[1,0,0,0,5],[1,1,0,0,-5]];perimeter=orthogonalPerimeter;outlineConnect=0;targetShapes=umlLifeline;portConstraint=eastwest;newEdgeStyle={&quot;curved&quot;:0,&quot;rounded&quot;:0};" vertex="1" parent="yX1Fl0R12Xeu3HnyX83A-18">
          <mxGeometry x="45" y="70" width="10" height="270" as="geometry" />
        </mxCell>
        <mxCell id="yX1Fl0R12Xeu3HnyX83A-20" value="handleRicerca()" style="html=1;verticalAlign=bottom;endArrow=block;curved=0;rounded=0;" edge="1" parent="1" source="yX1Fl0R12Xeu3HnyX83A-17">
          <mxGeometry width="80" relative="1" as="geometry">
            <mxPoint x="430" y="410" as="sourcePoint" />
            <mxPoint x="520" y="410" as="targetPoint" />
          </mxGeometry>
        </mxCell>
        <mxCell id="yX1Fl0R12Xeu3HnyX83A-21" value=":RubricaView" style="shape=umlLifeline;perimeter=lifelinePerimeter;whiteSpace=wrap;html=1;container=1;dropTarget=0;collapsible=0;recursiveResize=0;outlineConnect=0;portConstraint=eastwest;newEdgeStyle={&quot;curved&quot;:0,&quot;rounded&quot;:0};" vertex="1" parent="1">
          <mxGeometry x="630" y="330" width="100" height="340" as="geometry" />
        </mxCell>
        <mxCell id="yX1Fl0R12Xeu3HnyX83A-22" value="" style="html=1;points=[[0,0,0,0,5],[0,1,0,0,-5],[1,0,0,0,5],[1,1,0,0,-5]];perimeter=orthogonalPerimeter;outlineConnect=0;targetShapes=umlLifeline;portConstraint=eastwest;newEdgeStyle={&quot;curved&quot;:0,&quot;rounded&quot;:0};" vertex="1" parent="yX1Fl0R12Xeu3HnyX83A-21">
          <mxGeometry x="45" y="80" width="10" height="80" as="geometry" />
        </mxCell>
        <mxCell id="yX1Fl0R12Xeu3HnyX83A-23" value=":Rubrica" style="shape=umlLifeline;perimeter=lifelinePerimeter;whiteSpace=wrap;html=1;container=1;dropTarget=0;collapsible=0;recursiveResize=0;outlineConnect=0;portConstraint=eastwest;newEdgeStyle={&quot;curved&quot;:0,&quot;rounded&quot;:0};" vertex="1" parent="1">
          <mxGeometry x="780" y="330" width="100" height="330" as="geometry" />
        </mxCell>
        <mxCell id="yX1Fl0R12Xeu3HnyX83A-24" value="" style="html=1;points=[[0,0,0,0,5],[0,1,0,0,-5],[1,0,0,0,5],[1,1,0,0,-5]];perimeter=orthogonalPerimeter;outlineConnect=0;targetShapes=umlLifeline;portConstraint=eastwest;newEdgeStyle={&quot;curved&quot;:0,&quot;rounded&quot;:0};" vertex="1" parent="yX1Fl0R12Xeu3HnyX83A-23">
          <mxGeometry x="45" y="170" width="10" height="160" as="geometry" />
        </mxCell>
        <mxCell id="yX1Fl0R12Xeu3HnyX83A-25" value="ricercaContatto(StringToSearch)" style="html=1;verticalAlign=bottom;endArrow=block;curved=0;rounded=0;entryX=0;entryY=0;entryDx=0;entryDy=5;" edge="1" parent="1">
          <mxGeometry relative="1" as="geometry">
            <mxPoint x="537.5" y="514.5" as="sourcePoint" />
            <mxPoint x="822.5" y="514.5000000000002" as="targetPoint" />
          </mxGeometry>
        </mxCell>
        <mxCell id="yX1Fl0R12Xeu3HnyX83A-27" value="getText()" style="html=1;verticalAlign=bottom;endArrow=block;curved=0;rounded=0;entryX=0;entryY=0;entryDx=0;entryDy=5;" edge="1" parent="1">
          <mxGeometry relative="1" as="geometry">
            <mxPoint x="540" y="430" as="sourcePoint" />
            <mxPoint x="675" y="430" as="targetPoint" />
          </mxGeometry>
        </mxCell>
        <mxCell id="yX1Fl0R12Xeu3HnyX83A-28" value="&lt;div&gt;StringToSearch&lt;/div&gt;" style="html=1;verticalAlign=bottom;endArrow=open;dashed=1;endSize=8;curved=0;rounded=0;exitX=0;exitY=1;exitDx=0;exitDy=-5;" edge="1" parent="1" source="yX1Fl0R12Xeu3HnyX83A-22">
          <mxGeometry relative="1" as="geometry">
            <mxPoint x="540" y="485" as="targetPoint" />
          </mxGeometry>
        </mxCell>
        <mxCell id="yX1Fl0R12Xeu3HnyX83A-29" value="ordinaContatti(MatchingList)" style="html=1;verticalAlign=bottom;endArrow=block;curved=0;rounded=0;" edge="1" parent="1">
          <mxGeometry width="80" relative="1" as="geometry">
            <mxPoint x="540" y="600" as="sourcePoint" />
            <mxPoint x="820" y="600" as="targetPoint" />
          </mxGeometry>
        </mxCell>
        <mxCell id="yX1Fl0R12Xeu3HnyX83A-30" value="&lt;div&gt;orderedMatchingList&lt;/div&gt;&lt;div&gt;&lt;br&gt;&lt;/div&gt;" style="html=1;verticalAlign=bottom;endArrow=open;dashed=1;endSize=8;curved=0;rounded=0;" edge="1" parent="1">
          <mxGeometry relative="1" as="geometry">
            <mxPoint x="820" y="650" as="sourcePoint" />
            <mxPoint x="540" y="650" as="targetPoint" />
          </mxGeometry>
        </mxCell>
        <mxCell id="yX1Fl0R12Xeu3HnyX83A-33" value="matchingList" style="html=1;verticalAlign=bottom;endArrow=open;dashed=1;endSize=8;curved=0;rounded=0;" edge="1" parent="1">
          <mxGeometry relative="1" as="geometry">
            <mxPoint x="820" y="560" as="sourcePoint" />
            <mxPoint x="540" y="560" as="targetPoint" />
          </mxGeometry>
        </mxCell>
      </root>
    </mxGraphModel>
  </diagram>
</mxfile>
